#!OML:ASF F:\twosubjects\two\Thursday\Session 1\justin.ASF
:FULLY-SPECIFIED
:DEGREES
360
root 9.83431 15.915 -8.84858 -2.53168 29.6866 -1.27953
lowerback 10.0206 -0.536049 -0.151719
upperback 2.91456 -0.537092 4.40757
thorax -2.53956 -0.252423 4.74327
lowerneck -1.48307 -17.3788 -13.834
upperneck 8.06577 -25.2663 21.2074
head 7.27728 -11.9576 6.34563
rclavicle -1.5704e-014 2.06736e-014
rhumerus 22.2952 47.3896 -64.8452
rradius 115.778
rwrist 13.3837
rhand -20.4864 16.5623
rfingers 7.12502
rthumb 5.87027 -13.3364
lclavicle -1.5704e-014 2.06736e-014
lhumerus -21.8319 8.41101 85.5344
lradius 130.499
lwrist 28.8968
lhand -17.0527 36.015
lfingers 7.12502
lthumb 9.18454 65.795
rfemur -27.0641 -13.3507 -2.05867
rtibia 47.1715
rfoot -6.36484 -14.5574
rtoes -35.2009
lfemur -9.80053 -6.38188 6.614
ltibia 37.6908
lfoot -22.7493 -7.12657
ltoes -35.1239
361
root 9.90394 15.8894 -8.91535 -2.67218 30.2219 -1.49001
lowerback 9.62728 -0.463477 -0.0660986
upperback 2.98602 -0.444636 4.38508
thorax -2.25713 -0.210235 4.6512
lowerneck -0.960073 -17.4446 -13.6714
upperneck 7.60524 -25.3469 21.4133
head 7.06597 -12.0414 6.42924
rclavicle 2.52457e-014 -4.6118e-014
rhumerus 21.9744 47.3129 -65.1318
rradius 116.142
rwrist 13.4334
rhand -20.3981 16.2619
rfingers 7.12502
rthumb 5.95552 -13.6344
lclavicle 2.52457e-014 -4.6118e-014
lhumerus -21.718 8.33007 85.6733
lradius 130.543
lwrist 28.8213
lhand -17.854 35.7585
lfingers 7.12502
lthumb 8.41127 65.571
rfemur -26.5176 -13.3963 -2.35751
rtibia 46.4923
rfoot -5.57327 -14.7534
rtoes -35.6222
lfemur -10.196 -6.19812 6.57374
ltibia 37.832
lfoot -23.5697 -7.45742
ltoes -34.8442
362
root 9.97561 15.8798 -8.98933 -2.83574 30.7755 -1.66552
lowerback 9.10841 -0.491939 0.0340929
upperback 3.29032 -0.496879 4.32314
thorax -1.65255 -0.24496 4.52181
lowerneck -0.81896 -17.4412 -13.6445
upperneck 7.1373 -25.3571 22.0274
head 6.98779 -12.0547 6.63076
rclavicle 3.97569e-016 1.35174e-014
rhumerus 22.2765 47.3531 -65.0691
rradius 116.448
rwrist 13.8514
rhand -20.6188 16.1801
rfingers 7.12502
rthumb 5.74239 -13.7221
lclavicle 3.97569e-016 1.35174e-014
lhumerus -21.2582 8.31158 85.6754
lradius 130.453
lwrist 28.478
lhand -18.4189 35.6877
lfingers 7.12502
lthumb 7.86607 65.5214
rfemur -25.8008 -13.4014 -2.70976
rtibia 45.5972
rfoot -4.74635 -14.9431
rtoes -35.9269
lfemur -10.5862 -6.00551 6.44814
ltibia 37.9704
lfoot -24.4924 -7.49466
ltoes -35.008
363
root 10.0471 15.8828 -9.06846 -3.19449 31.3177 -1.8391
lowerback 9.01593 -0.403161 0.186256
upperback 3.55025 -0.376015 4.25613
thorax -1.34335 -0.187658 4.34858
lowerneck -0.74929 -17.5491 -13.6784
upperneck 6.80794 -25.5406 22.6367
head 7.00675 -12.14 6.79648
rclavicle 3.75703e-014 -5.80451e-014
rhumerus 22.3945 47.2157 -65.0396
rradius 116.728
rwrist 14.622
rhand -20.8684 16.2186
rfingers 7.12502
rthumb 5.50142 -13.69
lclavicle 3.75703e-014 -5.80451e-014
lhumerus -20.9826 7.94777 85.771
lradius 130.372
lwrist 28.2486
lhand -18.3843 35.1435
lfingers 7.12502
lthumb 7.8994 64.9759
rfemur -24.7895 -13.2434 -3.06724
rtibia 44.5142
rfoot -3.96521 -15.3183
rtoes -36.1693
lfemur -10.7835 -5.97325 6.29684
ltibia 38.0938
lfoot -25.1932 -7.86827
ltoes -34.1903
364
root 10.124 15.8813 -9.15634 -3.39033 31.6886 -1.98524
lowerback 9.49548 -0.282411 0.351947
upperback 3.24908 -0.177816 4.24275
thorax -1.93564 -0.0799337 4.22835
lowerneck -0.246216 -17.7004 -13.7391
upperneck 6.82401 -25.7762 22.5267
head 6.95993 -12.2908 6.77373
rclavicle -3.24019e-014 -1.35174e-014
rhumerus 21.5952 47.3046 -65.6685
rradius 117.026
rwrist 14.5625
rhand -20.3187 16.6095
rfingers 7.12502
rthumb 6.0321 -13.2846
lclavicle -3.24019e-014 -1.35174e-014
lhumerus -21.7059 7.69445 85.8306
lradius 130.48
lwrist 28.2556
lhand -18.3287 34.4883
lfingers 7.12502
lthumb 7.95308 64.3187
rfemur -23.9754 -13.0286 -3.45012
rtibia 43.2883
rfoot -3.08117 -15.5146
rtoes -36.3284
lfemur -11.0159 -5.98101 6.08803
ltibia 38.1448
lfoot -25.7982 -7.95737
ltoes -34.4556
365
root 10.2049 15.88 -9.25111 -3.28912 31.979 -2.02751
lowerback 9.41071 -0.201611 0.469755
upperback 3.08362 -0.0583412 4.20877
thorax -2.06959 -0.0180184 4.11261
lowerneck 0.48767 -17.7286 -14.0767
upperneck 6.4816 -25.8525 22.8681
head 6.84046 -12.3929 6.98019
rclavicle 3.26007e-014 -5.64548e-014
rhumerus 21.2247 47.3109 -66.0607
rradius 117.23
rwrist 14.3423
rhand -19.8648 17.5081
rfingers 7.12502
rthumb 6.47037 -12.3731
lclavicle 3.26007e-014 -5.64548e-014
lhumerus -22.0517 7.74179 85.9076
lradius 130.517
lwrist 28.232
lhand -18.5505 34.3168
lfingers 7.12502
lthumb 7.73904 64.1552
rfemur -23.4015 -12.8481 -3.93209
rtibia 41.9381
rfoot -1.85984 -15.5074
rtoes -36.5779
lfemur -11.375 -5.91783 5.73647
ltibia 38.0748
lfoot -26.5427 -7.41711
ltoes -35.7984
366
root 10.2911 15.89 -9.34747 -2.93916 32.3123 -1.76503
lowerback 8.94528 -0.0819376 0.360949
upperback 3.13473 0.0709575 4.0829
thorax -1.76874 0.0432741 4.0235
lowerneck 0.784506 -17.8635 -14.2142
upperneck 6.22008 -26.0544 23.1605
head 6.81205 -12.5169 7.07888
rclavicle 1.47101e-014 -2.8625e-014
rhumerus 21.2137 47.1836 -66.1886
rradius 117.313
rwrist 14.6904
rhand -19.9148 18.3942
rfingers 7.12502
rthumb 6.42207 -11.4884
lclavicle 1.47101e-014 -2.8625e-014
lhumerus -21.8653 7.83895 86.0971
lradius 130.533
lwrist 28.2078
lhand -18.6083 34.3295
lfingers 7.12502
lthumb 7.68326 64.1699
rfemur -22.7478 -12.6822 -4.73702
rtibia 40.4633
rfoot -0.526637 -15.3569
rtoes -37.3656
lfemur -11.7457 -5.85737 5.07187
ltibia 37.8477
lfoot -27.0634 -7.58253
ltoes -34.8283
367
root 10.3833 15.9127 -9.44807 -2.60015 32.574 -1.52812
lowerback 8.81205 0.0608222 0.06666
upperback 3.03926 0.237878 4.19344
thorax -1.80646 0.126604 4.28909
lowerneck 0.570425 -18.1042 -14.0502
upperneck 6.46317 -26.3262 22.5328
head 6.85308 -12.6342 6.79026
rclavicle -2.5842e-015 5.80451e-014
rhumerus 21.0448 47.3244 -66.1246
rradius 117.41
rwrist 14.794
rhand -19.7333 18.6522
rfingers 7.12502
rthumb 6.59724 -11.225
lclavicle -2.5842e-015 5.80451e-014
lhumerus -22.064 7.97862 86.4827
lradius 130.65
lwrist 28.1498
lhand -19.0159 34.1456
lfingers 7.12502
lthumb 7.28981 64
rfemur -21.9803 -12.227 -5.613
rtibia 38.8579
rfoot 0.462757 -15.2169
rtoes -37.7274
lfemur -12.0241 -5.71132 4.38485
ltibia 37.5345
lfoot -27.6066 -7.86525
ltoes -34.0517
368
root 10.4722 15.9425 -9.54858 -2.50378 32.7693 -1.60149
lowerback 8.82597 0.203653 0.188611
upperback 2.94256 0.44311 4.23382
thorax -1.9292 0.231369 4.24111
lowerneck 0.594758 -18.2488 -13.7668
upperneck 6.35782 -26.4737 22.3139
head 6.76911 -12.7115 6.66734
rclavicle 2.36554e-014 3.26007e-014
rhumerus 20.7838 47.2727 -66.3025
rradius 117.503
rwrist 14.8073
rhand -19.8147 18.4715
rfingers 7.12502
rthumb 6.51869 -11.4082
lclavicle 2.36554e-014 3.26007e-014
lhumerus -22.2887 7.8082 86.5887
lradius 130.543
lwrist 27.9251
lhand -19.7655 33.6436
lfingers 7.12502
lthumb 6.56619 63.5219
rfemur -21.1672 -11.497 -6.2005
rtibia 37.1657
rfoot 1.45749 -15.3176
rtoes -36.7864
lfemur -12.1858 -5.63396 3.94049
ltibia 37.2383
lfoot -28.2884 -7.02096
ltoes -35.1502
369
root 10.5554 15.9744 -9.64773 -2.7489 32.8327 -2.1344
lowerback 8.8272 0.446909 0.70855
upperback 2.92843 0.815742 4.31757
thorax -1.96612 0.419197 3.99422
lowerneck 0.923527 -18.4977 -13.5758
upperneck 5.89079 -26.7602 22.3719
head 6.60288 -12.889 6.64915
rclavicle -9.22361e-014 -1.51076e-014
rhumerus 20.5638 46.9958 -66.4883
rradius 117.579
rwrist 15.1474
rhand -20.0057 18.4302
rfingers 7.12502
rthumb 6.33435 -11.4551
lclavicle -9.22361e-014 -1.51076e-014
lhumerus -22.3377 7.51818 86.7262
lradius 130.289
lwrist 27.4589
lhand -19.5943 33.1247
lfingers 7.12502
lthumb 6.73148 62.9977
rfemur -20.4185 -10.7226 -6.2469
rtibia 35.5068
rfoot 3.01405 -15.3138
rtoes -35.4797
lfemur -12.2595 -5.60384 3.96208
ltibia 37.052
lfoot -28.7009 -5.55349
ltoes -36.8913
